<?xml version="1.0" encoding="UTF-8" standalone="no"?>
<!-- Created with Inkscape (http://www.inkscape.org/) -->

<svg
   xmlns:dc="http://purl.org/dc/elements/1.1/"
   xmlns:cc="http://creativecommons.org/ns#"
   xmlns:rdf="http://www.w3.org/1999/02/22-rdf-syntax-ns#"
   xmlns:svg="http://www.w3.org/2000/svg"
   xmlns="http://www.w3.org/2000/svg"
   xmlns:sodipodi="http://sodipodi.sourceforge.net/DTD/sodipodi-0.dtd"
   xmlns:inkscape="http://www.inkscape.org/namespaces/inkscape"
   width="380"
   height="100"
   viewBox="0 0 100.54167 26.458334"
   version="1.1"
   id="svg8"
   sodipodi:docname="bulltio.svg"
   inkscape:version="0.92.4 (5da689c313, 2019-01-14)">
  <defs
     id="defs2" />
  <sodipodi:namedview
     id="base"
     pagecolor="#ffffff"
     bordercolor="#666666"
     borderopacity="1.0"
     inkscape:pageopacity="0.0"
     inkscape:pageshadow="2"
     inkscape:zoom="1.979899"
     inkscape:cx="91.285675"
     inkscape:cy="-15.99639"
     inkscape:document-units="mm"
     inkscape:current-layer="layer1"
     showgrid="false"
     units="px"
     fit-margin-top="0"
     fit-margin-left="0"
     fit-margin-right="0"
     fit-margin-bottom="0"
     inkscape:window-width="1920"
     inkscape:window-height="1017"
     inkscape:window-x="-8"
     inkscape:window-y="-8"
     inkscape:window-maximized="1" />
  <metadata
     id="metadata5">
    <rdf:RDF>
      <cc:Work
         rdf:about="">
        <dc:format>image/svg+xml</dc:format>
        <dc:type
           rdf:resource="http://purl.org/dc/dcmitype/StillImage" />
        <dc:title></dc:title>
      </cc:Work>
    </rdf:RDF>
  </metadata>
  <g
     inkscape:label="Layer 1"
     inkscape:groupmode="layer"
     id="layer1"
     transform="translate(-1.1587965,-229.23144)">
    <g
       aria-label="bullt.io"
       style="font-style:normal;font-variant:normal;font-weight:normal;font-stretch:normal;font-size:7.56932402px;line-height:1.25;font-family:'Komika Text';-inkscape-font-specification:'Komika Text';letter-spacing:0px;word-spacing:0px;fill:#007ac8;fill-opacity:1;stroke:none;stroke-width:0.18923309"
       id="text817">
      <path
         d="m 17.016026,242.13766 q 0.07267,-0.94465 -0.217996,-1.59864 -0.25433,-0.65399 -0.799321,-1.05365 -0.544991,-0.436 -1.344312,-0.61766 -0.762988,-0.18166 -1.70764,-0.18166 -1.889303,0 -3.7786063,0.58132 -1.8893033,0.58133 -3.6332756,1.8893 l 0.7993207,-8.2112 q 0,-0.61766 -0.036333,-1.05365 -0.036333,-0.47232 -0.2179965,-0.76299 -0.145331,-0.32699 -0.5086586,-0.47232 -0.3269948,-0.14533 -0.9446517,-0.14533 -0.7266551,0 -1.1263154,0.29066 -0.3996603,0.29066 -0.6176569,0.76299 -0.2179965,0.47232 -0.290662,1.05365 -0.072665,0.58132 -0.1089983,1.16264 l -1.3079792,18.56604 q -0.072666,1.48965 0.1816638,2.39797 0.290662,0.94465 1.344312,0.94465 1.4533102,0 3.0519515,-0.58133 1.5986412,-0.54499 3.1609498,-1.52597 1.5623085,-0.98099 2.9792855,-2.28897 1.416978,-1.34431 2.506961,-2.83395 1.126315,-1.48964 1.816637,-3.12462 0.690323,-1.63497 0.799321,-3.19728 z m -3.451612,0.50866 q -0.07266,1.05365 -0.908319,2.54329 -0.79932,1.45331 -2.034634,2.87029 -1.2353137,1.41698 -2.7976222,2.61596 -1.5259758,1.16264 -3.0882843,1.63497 l 0.4723258,-6.83056 q 0.5086586,-0.83565 1.3079793,-1.48964 0.7993206,-0.69032 1.7439722,-1.16265 0.9446517,-0.47232 1.9619692,-0.72665 1.017317,-0.25433 1.961968,-0.25433 0.108999,0 0.326995,0 0.25433,-0.0363 0.472326,0.0363 0.254329,0.0363 0.435993,0.218 0.181664,0.18166 0.145331,0.54499 z"
         style="font-style:normal;font-variant:normal;font-weight:normal;font-stretch:normal;font-size:36.33275604px;font-family:'Komika Text';-inkscape-font-specification:'Komika Text';fill:#0062a0;fill-opacity:1;stroke-width:0.18923309"
         id="path821" />
      <path
         d="m 22.502272,238.28639 q -0.653989,-0.0363 -1.126315,0.21799 -0.435993,0.218 -0.726655,0.58133 -0.25433,0.36332 -0.363328,0.83565 -0.07267,0.43599 0,0.79932 l -0.762988,10.79083 q -0.145331,1.96197 0.726655,2.90662 0.908319,0.94465 2.543293,0.94465 1.089983,0 2.325297,-0.29066 1.235313,-0.25433 2.288963,-0.58132 1.05365,-0.327 1.743973,-0.58133 0.690322,-0.29066 0.690322,-0.29066 -0.07267,0.94465 0.363327,1.23531 0.472326,0.29067 1.126316,0.29067 0.544991,0 0.980984,-0.14534 0.472326,-0.10899 0.762988,-0.39966 0.326995,-0.25433 0.399661,-0.69032 0.108998,-0.47232 -0.108999,-1.12631 l 0.871986,-12.28048 q 0.399661,-1.6713 0.03633,-2.21629 -0.326995,-0.58133 -1.235314,-0.50866 -0.944651,0.0727 -1.489643,0.69032 -0.508658,0.61766 -0.79932,2.03463 l -0.65399,9.44652 q -0.435993,0.327 -1.089982,0.72666 -0.617657,0.36332 -1.344312,0.72665 -0.690323,0.327 -1.453311,0.54499 -0.726655,0.218 -1.380644,0.218 -0.290662,0 -0.617657,0 -0.290662,-0.0363 -0.581324,-0.109 -0.290662,-0.109 -0.472326,-0.25433 -0.181664,-0.18166 -0.181664,-0.47232 l 0.835653,-10.50017 q 0.217997,-1.05365 -0.108998,-1.78031 -0.290662,-0.72665 -1.198981,-0.76298 z"
         style="font-style:normal;font-variant:normal;font-weight:normal;font-stretch:normal;font-size:36.33275604px;font-family:'Komika Text';-inkscape-font-specification:'Komika Text';fill:#0062a0;fill-opacity:1;stroke-width:0.18923309"
         id="path823" />
      <path
         d="m 41.423123,252.45616 1.344312,-19.0747 q 0.07267,-0.61765 0.108998,-1.19898 0.07267,-0.58132 -0.03633,-0.98098 -0.108999,-0.43599 -0.472326,-0.65399 -0.326995,-0.25433 -1.05365,-0.218 -0.617657,0.0363 -0.980985,0.327 -0.363327,0.29066 -0.581324,0.72665 -0.181663,0.436 -0.254329,0.98099 -0.07267,0.50866 -0.108998,1.01731 l -1.416978,19.2927 q -0.03633,1.16265 0.399661,1.85297 0.472325,0.65399 1.307979,0.58132 0.980984,-0.0363 1.271646,-0.72665 0.290662,-0.72666 0.472326,-1.88931 z"
         style="font-style:normal;font-variant:normal;font-weight:normal;font-stretch:normal;font-size:36.33275604px;font-family:'Komika Text';-inkscape-font-specification:'Komika Text';fill:#0062a0;fill-opacity:1;stroke-width:0.18923309"
         id="path825" />
      <path
         d="m 49.512837,252.45616 1.344312,-19.0747 q 0.07267,-0.61765 0.108998,-1.19898 0.07267,-0.58132 -0.03633,-0.98098 -0.108999,-0.43599 -0.472326,-0.65399 -0.326995,-0.25433 -1.05365,-0.218 -0.617657,0.0363 -0.980984,0.327 -0.363328,0.29066 -0.581325,0.72665 -0.181663,0.436 -0.254329,0.98099 -0.07267,0.50866 -0.108998,1.01731 l -1.416978,19.2927 q -0.03633,1.16265 0.399661,1.85297 0.472326,0.65399 1.307979,0.58132 0.980984,-0.0363 1.271646,-0.72665 0.290662,-0.72666 0.472326,-1.88931 z"
         style="font-style:normal;font-variant:normal;font-weight:normal;font-stretch:normal;font-size:36.33275604px;font-family:'Komika Text';-inkscape-font-specification:'Komika Text';fill:#0062a0;fill-opacity:1;stroke-width:0.18923309"
         id="path827" />
      <path
         d="m 65.741089,251.62051 -0.690323,0.83565 q -0.472326,0.39966 -1.162648,0.90832 -0.65399,0.50866 -1.525976,0.94465 -0.871986,0.436 -1.925636,0.72666 -1.017317,0.32699 -2.143632,0.32699 -0.472326,0 -0.908319,-0.109 -0.435993,-0.0727 -0.762988,-0.36332 -0.326995,-0.25433 -0.508659,-0.72666 -0.181664,-0.47232 -0.108998,-1.27165 l 0.799321,-11.37215 -1.380645,0.25433 q -2.143633,0 -2.034634,-1.05365 0.03633,-0.65399 0.326994,-1.12631 0.326995,-0.47233 1.271647,-0.76299 l 2.034634,-0.327 0.145331,-2.61596 q 0.03633,-2.54329 2.070967,-2.39796 0.508659,0.0363 0.762988,0.218 0.290662,0.18166 0.39966,0.47233 0.108999,0.29066 0.108999,0.72665 0.03633,0.43599 0.03633,0.98098 l -0.145332,2.07097 4.2146,-0.58132 q 0.871986,-0.218 1.344312,-0.18167 0.472326,0.0363 0.690323,0.25433 0.217996,0.18167 0.254329,0.54499 0.03633,0.327 0.03633,0.72666 0.07267,0.54499 -0.399661,0.90832 -0.435993,0.36333 -1.816638,0.76299 l -4.541594,0.65399 -0.690322,10.02784 q -0.03633,0.36332 0.108998,0.47232 0.181664,0.109 0.39966,0.109 0.799321,0 1.235314,-0.39966 0.435993,-0.43599 0.690322,-0.69032 0.472326,-0.47233 1.126316,-0.69032 0.690322,-0.218 1.271646,-0.109 0.617657,0.109 1.017317,0.58132 0.435993,0.43599 0.399661,1.27165 z"
         style="font-style:normal;font-variant:normal;font-weight:normal;font-stretch:normal;font-size:36.33275604px;font-family:'Komika Text';-inkscape-font-specification:'Komika Text';fill:#0062a0;fill-opacity:1;stroke-width:0.18923309"
         id="path829" />
      <path
         d="m 73.754169,252.23816 q 0.03633,-0.39966 0,-0.87198 0,-0.50866 -0.181664,-0.90832 -0.181663,-0.43599 -0.581324,-0.72666 -0.39966,-0.29066 -1.089982,-0.29066 -0.726655,0 -1.344312,0.29066 -0.617657,0.25433 -1.089983,0.69033 -0.472326,0.43599 -0.762988,0.94465 -0.254329,0.50866 -0.290662,0.98098 -0.03633,0.47233 0.145331,0.98099 0.181664,0.50866 0.508659,0.94465 0.363327,0.39966 0.79932,0.65399 0.472326,0.29066 1.017317,0.29066 0.726656,0 1.235314,-0.29066 0.544992,-0.29066 0.871986,-0.72666 0.363328,-0.47232 0.544992,-0.98098 0.181663,-0.54499 0.217996,-0.98099 z"
         style="font-style:normal;font-variant:normal;font-weight:normal;font-stretch:normal;font-size:36.33275604px;font-family:'Komika Text';-inkscape-font-specification:'Komika Text';fill:#0062a0;fill-opacity:1;stroke-width:0.18923309"
         id="path831" />
      <path
         d="m 82.663643,232.72747 q 0.07267,-0.69032 -0.290662,-1.16264 -0.326995,-0.50866 -1.489643,-0.50866 -1.162648,0 -1.961969,0.72665 -0.762988,0.72666 -0.871986,2.4343 -0.03633,0.47232 0.108998,0.90832 0.181664,0.43599 0.435993,0.79932 0.290662,0.32699 0.617657,0.54499 0.326995,0.18166 0.617657,0.18166 1.45331,0 2.179965,-0.90832 0.726655,-0.94465 0.799321,-2.07096 z m -1.998302,19.61969 0.726655,-10.35483 q 0.145331,-1.23532 0.145331,-1.92564 0.03633,-0.72665 -0.145331,-1.08998 -0.145331,-0.39966 -0.472326,-0.50866 -0.290662,-0.109 -0.726655,-0.109 -0.835653,0 -1.307979,0.18167 -0.435993,0.18166 -0.653989,0.61765 -0.181664,0.436 -0.25433,1.16265 -0.07267,0.69032 -0.145331,1.74397 l -0.617657,10.17317 q -0.03633,0.545 -0.07267,1.05365 -0.03633,0.50866 0.03633,0.90832 0.108998,0.36333 0.39966,0.58133 0.326995,0.25433 0.980984,0.32699 0.690323,0.0727 1.05365,-0.14533 0.399661,-0.21799 0.581324,-0.61766 0.217997,-0.39966 0.290662,-0.94465 0.108999,-0.54499 0.181664,-1.08998 z"
         style="font-style:normal;font-variant:normal;font-weight:normal;font-stretch:normal;font-size:36.33275604px;font-family:'Komika Text';-inkscape-font-specification:'Komika Text';fill:#0062a0;fill-opacity:1;stroke-width:0.18923309"
         id="path833" />
      <path
         d="m 101.28986,245.18961 q -0.14533,2.14363 -1.12632,4.03294 -0.980984,1.8893 -2.50696,3.34261 -1.525975,1.41698 -3.487944,2.25263 -1.925636,0.83565 -4.032936,0.83565 -1.671307,0 -2.797622,-0.54499 -1.126316,-0.54499 -1.816638,-1.41697 -0.65399,-0.90832 -0.908319,-2.03464 -0.254329,-1.16265 -0.181664,-2.3253 0.108999,-1.81663 0.908319,-3.7786 0.835654,-1.9983 2.288964,-3.63328 1.45331,-1.63497 3.487944,-2.68862 2.034635,-1.05365 4.61426,-1.05365 1.562309,0 2.652292,0.61766 1.126315,0.58132 1.780304,1.5623 0.69032,0.98099 0.94465,2.25263 0.29066,1.27165 0.18167,2.57963 z m -3.451616,0 q 0.03633,-0.65399 -0.07267,-1.30798 -0.07267,-0.65399 -0.363328,-1.16265 -0.290662,-0.54499 -0.79932,-0.83565 -0.508659,-0.327 -1.30798,-0.327 -1.780305,0 -3.124617,0.76299 -1.344312,0.72666 -2.252631,1.88931 -0.908318,1.12631 -1.416977,2.50696 -0.508659,1.38064 -0.617657,2.61595 -0.03633,0.545 0.03633,1.12632 0.108998,0.58132 0.363327,1.05365 0.290662,0.43599 0.799321,0.72665 0.508659,0.29067 1.271647,0.29067 1.45331,0 2.761289,-0.61766 1.307979,-0.61766 2.325296,-1.63497 1.017318,-1.01732 1.634974,-2.3253 0.65399,-1.34431 0.762988,-2.76129 z"
         style="font-style:normal;font-variant:normal;font-weight:normal;font-stretch:normal;font-size:36.33275604px;font-family:'Komika Text';-inkscape-font-specification:'Komika Text';fill:#0062a0;fill-opacity:1;stroke-width:0.18923309"
         id="path835" />
    </g>
  </g>
</svg>
