<?xml version="1.0" encoding="UTF-8" standalone="no"?>
<!-- Created with Inkscape (http://www.inkscape.org/) -->

<svg
   xmlns:dc="http://purl.org/dc/elements/1.1/"
   xmlns:cc="http://creativecommons.org/ns#"
   xmlns:rdf="http://www.w3.org/1999/02/22-rdf-syntax-ns#"
   xmlns:svg="http://www.w3.org/2000/svg"
   xmlns="http://www.w3.org/2000/svg"
   xmlns:xlink="http://www.w3.org/1999/xlink"
   xmlns:sodipodi="http://sodipodi.sourceforge.net/DTD/sodipodi-0.dtd"
   xmlns:inkscape="http://www.inkscape.org/namespaces/inkscape"
   width="64"
   height="64"
   viewBox="0 0 16.933333 16.933332"
   version="1.1"
   id="svg8"
   inkscape:version="0.92.4 (5da689c313, 2019-01-14)"
   sodipodi:docname="icon.svg"
   inkscape:export-filename="C:\Users\Ben\Documents\dev\Flau\ClientApp\public\favicon.png"
   inkscape:export-xdpi="1.5000001"
   inkscape:export-ydpi="1.5000001">
  <defs
     id="defs2">
    <linearGradient
       inkscape:collect="always"
       id="linearGradient823-5">
      <stop
         style="stop-color:#003150;stop-opacity:1"
         offset="0"
         id="stop819" />
      <stop
         style="stop-color:#0093f0;stop-opacity:1"
         offset="1"
         id="stop821" />
    </linearGradient>
    <linearGradient
       inkscape:collect="always"
       xlink:href="#linearGradient823-5"
       id="linearGradient841"
       gradientUnits="userSpaceOnUse"
       x1="0.83448827"
       y1="114.4044"
       x2="108.04455"
       y2="114.4044"
       gradientTransform="matrix(0.21999671,0,0,0.21999671,3.3414216,122.4448)" />
  </defs>
  <sodipodi:namedview
     id="base"
     pagecolor="#ffffff"
     bordercolor="#666666"
     borderopacity="1.0"
     inkscape:pageopacity="0.0"
     inkscape:pageshadow="2"
     inkscape:zoom="3.959798"
     inkscape:cx="39.879085"
     inkscape:cy="47.82207"
     inkscape:document-units="mm"
     inkscape:current-layer="layer1"
     showgrid="false"
     inkscape:window-width="1920"
     inkscape:window-height="1017"
     inkscape:window-x="-8"
     inkscape:window-y="-8"
     inkscape:window-maximized="1"
     fit-margin-top="0"
     fit-margin-left="0"
     fit-margin-right="0"
     fit-margin-bottom="0"
     units="px" />
  <metadata
     id="metadata5">
    <rdf:RDF>
      <cc:Work
         rdf:about="">
        <dc:format>image/svg+xml</dc:format>
        <dc:type
           rdf:resource="http://purl.org/dc/dcmitype/StillImage" />
        <dc:title></dc:title>
      </cc:Work>
    </rdf:RDF>
  </metadata>
  <g
     inkscape:label="Layer 1"
     inkscape:groupmode="layer"
     id="layer1"
     transform="translate(-0.83447825,-138.71287)">
    <path
       inkscape:connector-curvature="0"
       id="path832"
       style="font-style:normal;font-variant:normal;font-weight:normal;font-stretch:normal;font-size:62.16245651px;line-height:1.25;font-family:'Antro Vectra';-inkscape-font-specification:'Antro Vectra';letter-spacing:0px;word-spacing:0px;fill:url(#linearGradient841);fill-opacity:1;stroke:none;stroke-width:0.34188843"
       d="m 9.4265265,145.33588 c 0.021041,-0.0316 0.052595,-0.0737 0.094677,-0.11566 h 0.052601 l 0.1998734,-0.0631 0.178835,-0.0631 c 0.1998721,-0.0631 0.4313031,-0.11577 0.6311771,-0.14728 h 0.02105 l 0.04207,-0.0422 0.03155,0.0103 h 0.07365 l 0.02104,0.021 0.04207,-0.0631 c 0.136755,-0.0103 0.578581,-0.0631 0.725854,-0.0737 h 0.115715 l 0.03156,-0.0103 c 0.06312,-0.021 0.136755,-0.021 0.231432,-0.0316 v 0.0103 c 0.115716,-0.0316 0.231433,-0.0525 0.368187,-0.0422 h 0.01054 l 0.06312,-0.0211 0.357669,-0.021 h 0.01054 0.336629 l 0.04207,-0.021 -0.02104,-0.0527 -0.02104,-0.0103 c 0,-0.0211 -0.262992,-0.0421 -0.347149,-0.0316 -0.210393,0.021 -0.504942,0.0526 -0.62066,0.0421 -0.08416,0.0103 -0.168314,0.0103 -0.25247,0.021 -0.09467,0.0103 -0.189354,0.0316 -0.273511,0.0422 -0.294551,0.021 -0.55754,0.0422 -0.746895,0.0631 h -0.126244 c -0.210391,0.0211 -0.557539,0.11578 -0.9257274,0.2104 l -0.063118,0.0103 h -0.021079 l 0.084157,-0.14727 0.021039,-0.0103 0.031558,-0.021 v -0.0316 l 0.010542,-0.0525 0.2419514,-0.43131 0.147277,-0.16833 0.04207,-0.10519 c 0.08416,-0.0947 0.157795,-0.2104 0.220913,-0.33663 l 0.08416,-0.12624 c 0.431305,-0.46287 0.694297,-1.03092 1.094044,-1.51483 0.199873,-0.30507 0.378706,-0.41025 0.55754,-0.72585 0.30507,-0.38923 0.767934,-0.95729 1.094044,-1.32547 l 0.178833,-0.29456 0.02105,-0.0103 0.06312,0.021 -0.03155,-0.0421 0.126236,-0.13677 0.252472,-0.0631 0.0526,-0.0947 0.07365,-0.12624 0.08416,-0.0946 0.01054,-0.0316 0.326108,-0.0946 0.07365,-0.23145 -0.06312,-0.12623 -0.08416,-0.0947 h -0.07365 l -0.09467,0.0316 -0.01054,-0.0316 h -0.03155 v 0.0316 l -0.02104,0.0316 -0.0526,0.0528 -0.105205,0.0631 -0.02104,0.021 -0.01054,-0.021 -0.0526,0.0316 -0.09468,0.021 -0.09468,0.0737 -0.01054,0.0103 h -0.02104 l -0.02104,0.0316 -0.04207,0.021 -0.02104,-0.021 v 0.021 l -0.04206,0.0737 v 0.021 l -0.02104,0.0422 -0.02104,0.021 v 0.0421 h -0.0526 l -0.04207,0.0736 v 0.0316 l 0.02104,0.0103 -0.03156,0.0525 h -0.0526 l -0.0526,0.0631 -0.04207,0.0737 -0.06312,0.13676 -0.07365,0.12624 -0.147275,0.17882 -0.02104,0.0422 -0.0526,0.0103 -0.02104,0.0631 v 0.0103 l -0.147274,0.14726 -0.262991,0.33664 -0.06312,0.11577 -0.252473,0.29456 -0.02104,0.0422 c -0.115714,0.1578 -0.241952,0.30507 -0.336627,0.46286 l -0.03155,0.0527 -0.105206,0.10519 -0.01054,0.0316 c -0.105194,0.11577 -0.220914,0.23144 -0.294549,0.37872 -0.126236,0.19987 -0.294551,0.39974 -0.389228,0.62066 l -0.07365,0.0946 -0.105205,0.11566 -0.04208,0.0421 -0.08416,0.11578 -0.126235,0.1683 -0.07365,0.0422 -0.01054,0.0527 0.01054,0.021 c -0.04207,0.0631 -0.08416,0.12623 -0.105205,0.18935 l -0.4523455,0.81001 -0.084155,0.11578 -0.094675,0.0737 -0.010542,0.0631 -0.1157166,0.11577 -0.1893538,0.39974 c -0.010519,0.0103 -0.010519,0.0103 -0.010519,0.0211 l -0.073638,0.0103 h -0.042077 l -0.042078,-0.0316 H 9.247616 l -0.073637,0.0631 -0.084158,0.0316 -0.084157,0.021 -0.1157163,0.0316 -0.2524717,0.0422 -0.1577948,0.0316 -0.4207856,0.0947 -0.094677,0.0422 c -0.1051966,0 -0.1893536,0 -0.3892268,0.0422 -0.02104,0.0103 -0.042079,0.0103 -0.063118,0.0103 l -0.010519,-0.0103 h -0.063108 v -0.0103 h -0.010519 v 0.021 l -0.02104,0.0103 -0.031558,0.0103 -0.010519,0.0103 h -0.01052 l -0.073638,0.021 -0.063118,0.0421 -0.042079,0.021 -0.010519,0.021 h 0.010519 l -0.063118,0.0422 H 7.101619 l -0.031559,0.0528 -0.02104,0.0422 v 0.0526 l 0.042079,0.0316 c 0.1367555,0.25246 0.5680609,0.17883 0.767934,0.33663 l 0.147275,0.15778 0.073638,0.0946 0.031558,0.021 0.031559,0.0526 0.031559,0.021 v 0.0422 l 0.052599,0.0422 0.063118,0.0946 c 0.010519,0.021 0.02104,0.0422 0.042078,0.0631 l -0.084157,0.13677 -0.031559,0.0316 v 0.021 l -0.042079,0.0736 H 8.153584 l -0.063118,0.12625 -0.4207859,0.68377 -0.073638,0.0631 -0.063118,0.0946 -0.1157163,0.24194 -0.241952,0.39975 -0.2840301,0.46287 -0.1788341,0.22092 -0.052599,0.1578 -0.2840302,0.46285 -0.031559,0.0946 c -0.021037,0.0211 -0.031558,0.0526 -0.052599,0.0841 l -0.021037,0.0422 -0.052598,0.0737 -0.052599,0.0946 -0.2209126,0.38922 -0.094677,0.13675 -0.031559,0.0842 -0.1472751,0.27351 -0.063118,0.11578 -0.042079,0.0422 -0.1367552,0.26299 -0.052599,0.0946 -0.010519,0.0421 -0.042079,0.0631 v 0.0316 l -0.1683143,0.31558 -0.031559,0.0316 -0.084157,0.17885 -0.031558,0.021 -0.010519,0.0422 -0.021039,0.0422 v 0.0211 c -0.042079,0.0946 -0.084157,0.18936 -0.1367554,0.28404 l -0.1051966,0.18935 -0.021039,0.021 v 0.0316 l -0.052599,0.11577 -0.094677,0.0736 v 0.0528 l -0.03156,0.21039 c -0.1157163,0.28404 -0.2314321,0.57859 -0.3997464,0.86262 -0.031558,0.0737 -0.073638,0.13675 -0.094677,0.2104 h -0.010519 l -0.021039,0.0631 v 0.021 c -0.042079,0.12624 -0.084157,0.24195 -0.1051966,0.36818 l -0.042079,0.12623 -0.063118,0.11578 -0.073638,0.11565 -0.031559,0.0736 v 0.0843 l 0.010519,0.0842 -0.052599,0.10519 -0.010519,0.0103 -0.031559,0.0103 -0.010519,0.0422 -0.021039,0.0103 -0.010519,0.021 -0.021039,0.0737 -0.010519,-0.0103 -0.010519,0.0103 0.021039,0.021 v 0.0316 l -0.010519,0.0422 v 0.0316 l -0.010519,0.0947 0.021039,0.0946 v 0.0631 l 0.021039,0.0103 v -0.0103 l 0.010519,0.0946 c -0.010519,0.0525 -0.031559,0.10519 -0.052599,0.1578 l 0.042078,0.12622 0.084157,0.0947 h 0.052599 v 0.0103 l 0.010519,-0.0103 0.021039,0.0103 0.084157,-0.0316 0.010519,0.0316 0.031558,0.0103 v -0.0316 l 0.021039,-0.0422 -0.042078,-0.021 0.3050696,-0.18934 0.3155892,-0.22092 0.094677,-0.12623 0.262991,-0.31559 0.1051966,-0.1578 h 0.010519 l 0.052599,-0.0631 v -0.021 l 0.010519,-0.0103 0.052599,0.0316 -0.021039,-0.0422 v -0.021 c 0.021039,-0.021 0.042078,-0.0422 0.052597,-0.0631 l 0.3471482,-0.39975 0.031559,-0.0103 v -0.021 l 0.010519,-0.0103 0.2419517,-0.29455 0.084157,-0.0631 0.052599,-0.0631 0.1472751,-0.14728 0.063118,-0.0737 0.052599,-0.0631 0.073638,-0.14728 0.1051966,-0.11577 0.021037,-0.0422 c 0.3366287,-0.39974 0.6627374,-0.81001 0.967807,-1.2308 l 0.1893537,-0.18934 0.1262356,-0.18935 0.031558,-0.0631 0.084157,-0.12624 0.021038,-0.0422 0.073638,-0.0737 0.073638,-0.14728 0.084157,-0.12622 0.031559,-0.0422 0.084157,-0.0842 0.063118,-0.0737 0.031559,-0.0631 0.1051966,-0.11578 0.031559,-0.0422 0.042078,-0.12624 0.010519,-0.0946 0.052599,-0.0946 0.021035,-0.0947 0.021041,-0.0316 0.010519,-0.0631 0.052601,-0.0946 0.021035,-0.0103 -0.010519,-0.0211 0.063118,-0.12624 0.084157,-0.0631 0.021035,-0.0525 -0.031559,-0.0526 c 0.042077,-0.0946 0.084158,-0.17884 0.1157162,-0.27352 l 0.1157164,-0.14728 0.031559,-0.0316 0.010519,-0.0316 v -0.0422 l 0.010519,-0.0946 0.010519,-0.0843 0.063119,-0.0525 0.021035,-0.0211 -0.021035,-0.021 -0.021041,-0.10519 c 0.021041,-0.0631 0.031559,-0.12624 0.042077,-0.17884 l 0.010519,-0.021 0.063118,-0.17886 0.010519,-0.0841 0.010519,-0.0737 0.031559,-0.12623 0.021035,-0.1052 v -0.0737 l -0.010519,-0.16831 0.031559,-0.1578 -0.010519,-0.12622 -0.052601,-0.17885 0.021035,-0.0737 -0.042078,-0.0947 v -0.021 c -0.031559,-0.1578 -0.052595,-0.30509 -0.1051966,-0.45235 l 0.010519,-0.0103 -0.021041,-0.0316 -0.031559,-0.0737 -0.010519,-0.1052 -0.021035,-0.0736 v -0.0843 l -0.010519,-0.021 -0.063118,-0.0211 -0.031559,-0.0316 -0.042077,-0.0631 -0.031559,-0.021 c -0.042078,-0.0737 -0.094677,-0.14727 -0.1472749,-0.2209 0,0 0,-0.0103 0.010519,-0.0103 l 0.063118,-0.0631 0.010519,-0.0631 0.010519,-0.0212 c 0.063118,-0.0946 0.1157163,-0.18933 0.1683141,-0.28402 l 0.063119,-0.021 0.010519,-0.0316 0.021041,-0.0422 0.021035,-0.0843 z m -0.9888468,5.08099 -0.1262357,0.27351 -0.010519,0.0211 -0.052599,0.0946 v 0.0316 l -0.021038,0.0103 v 0.0211 l -0.1051967,0.18936 c -0.084157,0.12622 -0.1577944,0.26299 -0.2314321,0.38923 l -0.042078,0.0527 v 0.021 l -0.010519,0.0103 h -0.010519 l -0.010519,0.0422 -0.031559,0.021 -0.021037,0.0316 v 0.0316 l -0.2103929,0.33664 -0.1262357,0.0843 -0.1577946,0.3156 -0.2945502,0.36817 -0.010519,0.0103 v 0.0103 l -0.063118,0.0841 -0.2103928,0.25248 -0.1051967,0.0843 -0.2209125,0.30506 -0.1577947,0.16833 -0.3471481,0.38923 -0.3892268,0.44183 -0.094677,0.11576 -0.1262357,0.13676 -0.3050696,0.42077 -0.094677,0.0843 -0.052599,0.0316 -0.5996197,0.57857 -0.1893536,0.12624 -0.010519,-0.0316 -0.010519,-0.12623 -0.021039,-0.0528 v -0.0103 c 0.1472749,-0.58909 0.2209124,-1.36754 0.5049428,-1.92509 l 0.063118,-0.0841 0.1051966,-0.24197 0.4102662,-0.77844 c 0.063118,-0.11566 0.1157163,-0.23144 0.178834,-0.33664 l 0.094677,-0.13674 0.052597,-0.14729 0.178834,-0.35767 0.1472749,-0.2735 0.052599,-0.11566 0.063118,-0.14727 0.084156,-0.0841 0.010519,-0.0947 0.2209122,-0.42079 0.042079,-0.0737 v -0.021 c 0.031558,-0.0422 0.052599,-0.0946 0.073638,-0.13676 l 0.1157163,-0.14727 0.1157165,-0.28402 0.2524713,-0.43131 0.084157,-0.14728 0.042079,-0.11576 c 0,-0.0103 0.010519,-0.0211 0.021038,-0.0316 l 0.052599,-0.0736 0.031559,-0.0737 c 0.094677,-0.17883 0.1998732,-0.35765 0.3050697,-0.52597 0.147275,-0.24197 0.3576678,-0.3787 0.5049429,-0.61015 l 0.2840302,-0.45235 0.031558,-0.0316 0.073638,-0.12624 0.052599,-0.0842 0.094677,-0.0946 v -0.0737 l 0.042079,-0.0528 0.010519,-0.0103 0.010519,-0.0316 0.094677,-0.15779 h 0.010519 c 0.073638,0.0946 0.1577944,0.16831 0.2419515,0.27351 l 0.042077,0.0841 0.03156,0.0316 0.042078,0.0631 0.084157,0.19988 0.010519,0.0422 0.042077,0.11577 0.010519,0.14727 0.010519,0.0946 0.010519,0.0103 c 0.010519,0.24195 0.010519,0.48389 0,0.71533 l -0.052595,0.18935 -0.021041,0.10519 -0.042078,0.13676 -0.010519,0.15779 -0.021035,0.11576 -0.042077,0.17884 -0.031559,0.12625 -0.094677,0.2735 v 0.021 l -0.063119,0.1578 -0.010519,0.0103 -0.010519,0.0316 -0.063118,0.10519 -0.073638,0.10519 z m 0.6311788,-5.11256 c 0.021035,0 0.042078,0 0.073638,-0.021 l 0.052601,0.0103 0.063118,-0.0421 -0.021035,0.0421 -0.052601,0.0947 -0.3050698,0.45235 -0.1262356,0.15779 -0.042077,0.11577 -0.1998735,0.31558 v -0.0103 l -0.042077,-0.0422 -0.031559,-0.10519 -0.021035,-0.0316 -0.063118,-0.0631 -0.063118,-0.0316 -0.021038,-0.0316 c -0.042079,-0.0527 -0.094677,-0.1052 -0.1788342,-0.16831 v -0.021 l -0.031559,0.0103 v -0.0103 c -0.1683142,-0.1052 0.094677,-0.14729 -0.1262356,-0.23144 l -0.031559,-0.0631 0.1051965,-0.0211 0.073638,-0.021 0.1051966,-0.0422 0.1367553,-0.0316 0.063118,-0.0316 0.094676,-0.021 0.1157163,-0.0631 0.2103924,-0.0316 z" />
  </g>
</svg>
