<?xml version="1.0" encoding="UTF-8" standalone="no"?>
<svg
   xmlns:dc="http://purl.org/dc/elements/1.1/"
   xmlns:cc="http://creativecommons.org/ns#"
   xmlns:rdf="http://www.w3.org/1999/02/22-rdf-syntax-ns#"
   xmlns:svg="http://www.w3.org/2000/svg"
   xmlns="http://www.w3.org/2000/svg"
   xmlns:xlink="http://www.w3.org/1999/xlink"
   id="svg8"
   version="1.1"
   viewBox="0 0 67.733335 51.701214"
   height="195.40616"
   width="256">
  <defs
     id="defs2">
    <linearGradient
       id="linearGradient850">
      <stop
         style="stop-color:#004978;stop-opacity:1"
         offset="0"
         id="stop846" />
      <stop
         style="stop-color:#007ac8;stop-opacity:1"
         offset="1"
         id="stop848" />
    </linearGradient>
    <linearGradient
       gradientTransform="matrix(1.4974016,0,0,1.4974016,-0.02146843,-94.325377)"
       gradientUnits="userSpaceOnUse"
       y2="138.47487"
       x2="45.533516"
       y1="138.47487"
       x1="0.66633701"
       id="linearGradient844"
       xlink:href="#linearGradient850" />
  </defs>
  <metadata
     id="metadata5">
    <rdf:RDF>
      <cc:Work
         rdf:about="">
        <dc:format>image/svg+xml</dc:format>
        <dc:type
           rdf:resource="http://purl.org/dc/dcmitype/StillImage" />
        <dc:title></dc:title>
      </cc:Work>
    </rdf:RDF>
  </metadata>
  <g
     transform="translate(-0.97630501,-87.176516)"
     id="layer1">
    <g
       id="text835"
       style="font-style:normal;font-weight:normal;font-size:38.62734222px;line-height:1.25;font-family:sans-serif;letter-spacing:0px;word-spacing:0px;fill:url(#linearGradient844);fill-opacity:1;stroke:none;stroke-width:0.96568352"
       aria-label="flau">
      <path
         id="path827"
         style="font-style:normal;font-variant:normal;font-weight:bold;font-stretch:normal;font-family:'Antro Vectra';-inkscape-font-specification:'Antro Vectra Bold';fill:url(#linearGradient844);fill-opacity:1;stroke-width:0.96568352"
         d="m 18.150616,106.75761 0.118853,-0.208 h 0.08914 l 0.62398,-0.17828 0.505127,-0.20799 c 0.594267,-0.17828 1.218247,-0.32685 1.723374,-0.38627 l 0.505126,-0.0891 0.415987,-0.0891 c 0.207994,0 0.594267,-0.0594 0.861687,-0.11886 l 0.921114,-0.11885 h 0.297133 l 0.148567,-0.0297 c 0.118853,-0.0297 0.26742,-0.0594 0.386273,-0.0594 0.05943,0 0.17828,-0.0297 0.26742,-0.0297 0.297134,-0.0594 0.62398,-0.11886 0.950827,-0.0891 l 0.237707,-0.0594 1.010253,-0.0594 h 0.980541 l 0.297133,-0.11885 0.08914,-0.17828 -0.05943,-0.23771 c -0.118853,-0.17828 -1.010253,-0.32684 -1.307387,-0.32684 h -0.17828 c -0.564553,0.0594 -1.307387,0.14856 -1.60452,0.11885 -0.118853,0.0297 -0.237707,0.0297 -0.326847,0.0297 -0.118853,0 -0.237706,0.0297 -0.35656,0.0297 l -0.505127,0.0594 c -0.118853,0.0297 -0.207993,0.0594 -0.297133,0.0594 l -2.109647,0.17828 h -0.35656 c -0.594267,0.0594 -1.396527,0.26742 -2.258214,0.50513 l -0.05943,0.0297 0.17828,-0.35656 0.653694,-1.12911 0.505127,-0.74283 c 0.237706,-0.23771 0.4457,-0.59427 0.653693,-0.98054 0.05943,-0.11885 0.17828,-0.23771 0.237707,-0.35656 0.742833,-0.74283 1.15882,-1.54509 1.69366,-2.317641 0.35656,-0.594267 0.80226,-1.218247 1.366814,-1.901654 0.26742,-0.386273 0.505127,-0.683407 0.742833,-0.950827 0.297134,-0.297133 0.564554,-0.594266 0.861687,-1.129107 0.861687,-1.099393 2.139361,-2.6742 3.060474,-3.714167 l 0.861687,-0.8914 0.415987,-0.326847 0.505127,-0.53484 0.26742,-0.35656 0.237706,-0.17828 0.26742,-0.207994 0.475414,-0.35656 0.148567,-0.297133 0.118853,-0.207994 c 0.17828,-0.35656 0.17828,-0.53484 -0.02971,-0.742833 -0.148567,-0.207993 -0.326847,-0.326847 -0.623981,-0.326847 -0.237706,0 -0.475413,0.05943 -0.71312,0.17828 l -0.505127,0.326847 -0.386273,0.475413 -0.118853,0.118854 -0.26742,0.207993 -0.326847,0.297134 -0.237707,0.326846 -0.831973,1.069681 -0.17828,0.326846 -0.4457,0.505127 c 0,0.02971 0,0.05943 -0.02971,0.118853 l -0.148567,0.148567 -0.08914,0.118854 -0.475413,0.475413 -0.505127,0.653693 -0.297133,0.475414 -0.772547,0.8914 c 0,0.02971 -0.05943,0.118853 -0.05943,0.17828 l -0.26742,0.297134 c -0.26742,0.326846 -0.505127,0.653693 -0.653693,0.921113 l -0.02971,0.118853 -0.386273,0.386274 v 0.05943 l -0.08914,0.05943 c -0.26742,0.297134 -0.53484,0.594267 -0.742834,1.010254 l -0.326846,0.505127 c -0.297134,0.415986 -0.62398,0.861686 -0.772547,1.24796 l -0.17828,0.237707 -0.26742,0.297133 -0.148567,0.148567 -0.237707,0.297133 -0.237706,0.326847 -0.326847,0.505124 c -0.17828,0.23771 -0.326847,0.47542 -0.35656,0.59427 l -1.06968,1.66395 -0.237707,0.32684 -0.4457,0.77255 -0.326847,0.47541 c -0.17828,0.32685 -0.35656,0.74284 -0.53484,1.0994 -0.02971,0.0297 -0.02971,0.0297 -0.05943,0.0297 h -0.118853 l -0.415987,0.0891 -0.237707,0.0891 -0.26742,0.0594 -0.326846,0.0891 -0.683407,0.11885 -0.4457,0.0891 -1.188534,0.26742 -0.35656,0.0891 c -0.326847,0 -0.475414,0.0297 -1.010254,0.14857 -0.05943,0.0297 -0.08914,0.0297 -0.118853,0.0297 l -0.475413,0.0594 -0.17828,0.0594 -0.297134,0.17828 -0.237707,0.14857 -0.148566,0.14857 -0.17828,0.2377 -0.05943,0.208 v 0.2377 c 0,0.0297 0.08914,0.0891 0.148567,0.11886 0.297133,0.50512 0.831973,0.6834 1.396527,0.77254 h 0.02971 c 0.326847,0.0594 0.653693,0.11886 0.772547,0.23771 l 0.415987,0.41599 0.297133,0.38627 c 0,0 0.02971,0.0297 0.05943,0.0297 0.02971,0.0594 0.17828,0.17828 0.207993,0.208 l 0.02971,0.0891 0.207994,0.32684 c -0.02971,0.0891 0,0.0297 -0.148567,0.29714 l -0.05943,0.0594 -0.237706,0.35657 -0.148567,0.29713 -1.099394,1.60452 -0.297133,0.50513 -0.207993,0.29713 -0.297134,0.62398 c -0.17828,0.32685 -0.475413,0.80226 -0.683407,1.12911 l -0.80226,1.30738 -0.5348399,0.68341 -0.2971334,0.56455 -0.6834068,1.24796 -0.059427,0.208 -0.08914,0.14856 -0.2971334,0.50513 -0.08914,0.11885 -0.6239801,1.0994 -0.2971334,0.4457 -0.059427,0.20799 -0.4159868,0.77255 c -0.029713,0.0594 -0.1188533,0.20799 -0.1485667,0.29713 l -0.1188533,0.11885 -0.4754135,0.8914 -0.1188533,0.17828 v 0.0891 l -0.1188534,0.17828 -0.4754134,0.98055 -0.059427,0.0891 -0.2674201,0.50512 -0.1485667,0.23771 c 0,0.0297 0,0.0297 -0.029713,0.0891 -0.08914,0.23771 -0.2079934,0.56455 -0.3862734,0.83197 l -0.3268468,0.59427 c 0,0.0297 -0.029713,0.14857 -0.059427,0.17828 l -0.1188534,0.26742 -0.3565601,0.92111 c -0.1188534,0.26742 -0.2377067,0.53484 -0.3862734,0.77255 -0.08914,0.14857 -0.1485667,0.35656 -0.2377067,0.50513 -0.08914,0.17828 -0.1782801,0.32684 -0.2377068,0.53484 -0.059427,0.17828 -0.1485667,0.41598 -0.26742,0.62398 l -0.1188534,0.2377 c -0.08914,0.14857 -0.1485667,0.29714 -0.17828,0.41599 l -0.08914,0.14857 c -0.059427,0.29713 -0.1188534,0.47541 -0.2079934,0.65369 -0.1485667,0.29713 -0.3268468,0.74283 -0.3862734,0.95083 l -0.1485667,0.47541 -0.1188534,0.26742 c -0.059427,0.32685 -0.17828,0.62398 -0.2377067,0.95083 l -0.08914,0.32684 c 0,0.0594 -0.029713,0.17828 -0.029713,0.26742 l -0.1188533,0.80226 c 0.059427,0.4457 0.059427,0.50513 -0.0297134,0.68341 l 0.11885339,0.47541 0.3862734,0.47542 h 0.2971334 l 0.5942668,-0.14857 c 0.2377067,-0.17828 0.5348401,-0.47541 0.7725468,-0.65369 l 0.9211136,-0.6537 0.2971334,-0.35656 0.8022602,-0.95082 0.26742,-0.41599 c 0.2971334,-0.38627 0.3268468,-0.41599 0.3268468,-0.41599 0.059427,-0.0594 0.029713,-0.0594 0.059427,-0.0891 l 0.9805402,-1.1291 0.08914,-0.0891 0.7428335,-0.86169 0.2674201,-0.23771 c 0.029713,-0.0297 0.1188533,-0.11885 0.1485667,-0.17828 l 0.3565601,-0.35656 0.2377067,-0.26742 0.1485667,-0.17828 0.2079934,-0.41598 0.3268467,-0.35656 v -0.0297 c 0.9211134,-1.09939 1.9016534,-2.34735 2.7336274,-3.50617 l 0.53484,-0.53484 0.415987,-0.62398 0.05943,-0.11885 0.267421,-0.41599 0.02971,-0.0594 0.415987,-0.62398 c 0.05943,-0.11885 0.17828,-0.23771 0.237706,-0.35656 l 0.02971,-0.0594 0.237706,-0.2377 0.237707,-0.26742 0.683407,-1.36682 0.118853,-0.17828 0.05943,-0.35656 0.05943,-0.0891 0.17828,-0.35656 v -0.0594 l 0.118853,-0.23771 0.26742,-0.59427 0.148567,-0.26742 0.237707,-0.38627 0.297133,-0.53484 0.118853,-0.32685 0.02971,-0.35656 c 0,-0.0594 0.02971,-0.14856 0.02971,-0.20799 l 0.118853,-0.56455 0.118854,-0.38628 c 0,-0.0297 0.02971,-0.11885 0.02971,-0.17828 l 0.17828,-0.50512 0.02971,-0.26742 c 0,-0.0297 0.02971,-0.11886 0.02971,-0.14857 l 0.08914,-0.35656 0.05943,-0.35656 v -0.20799 l 0.05943,-0.4457 v -0.47542 l -0.02971,-0.41598 -0.118854,-0.50513 -0.08914,-0.47541 -0.05943,-0.29714 c -0.05943,-0.29713 -0.08914,-0.62398 -0.237707,-0.98054 l -0.02971,-0.17828 -0.08914,-0.20799 -0.02971,-0.23771 -0.05943,-0.26742 -0.237707,-0.41598 -0.118853,-0.11886 c -0.207994,-0.29713 -0.17828,-0.26742 -0.237707,-0.29713 l -0.297134,-0.4457 0.178281,-0.208 0.505126,-0.8914 0.207994,-0.20799 c 0,0 0,-0.0594 0.02971,-0.11885 l 0.08914,-0.17828 z m -2.941621,13.54928 -0.26742,0.38627 -0.05943,0.14857 -0.35656,0.77255 -0.207993,0.38627 c 0,0.0297 -0.05943,0.0594 -0.05943,0.11885 l -0.26742,0.53484 c -0.207993,0.32685 -0.326847,0.56456 -0.4457,0.77255 l -0.207993,0.32685 -0.237707,0.38627 -0.118854,0.20799 -0.564553,0.92112 -0.80226,1.12911 -0.71312,0.8914 -0.326847,0.4457 -0.564554,0.6834 -0.3565597,0.26742 -0.5942668,0.83198 -0.4457001,0.47541 -0.9805402,1.09939 -1.0993936,1.24796 -0.2377067,0.32685 -0.3862734,0.41599 -0.8319735,1.15882 -0.2377068,0.20799 -0.17828,0.11885 -1.6936604,1.63424 -0.2079934,0.17828 h -0.029713 c 0,-0.0594 0.029713,-0.11886 0.029713,-0.17828 0.1188534,-0.47542 0.2079934,-0.92112 0.2971334,-1.36682 0.2674201,-1.18853 0.5051268,-2.40678 1.129107,-3.62502 l 0.2377067,-0.77255 c 0.059427,-0.17828 0.26742,-0.62398 0.3862734,-0.83197 l 0.9805402,-1.93137 0.2079934,-0.38627 c 0.08914,-0.23771 0.17828,-0.41599 0.2674201,-0.53484 l 0.3268467,-0.4457 0.1485667,-0.4457 0.4754135,-0.95083 0.4754134,-0.8914 0.08914,-0.208 0.1782801,-0.38627 0.26742,-0.50513 0.6239802,-1.21824 0.1188533,-0.208 0.2079934,-0.41598 v -0.0594 l 0.3565601,-0.4457 0.2971334,-0.74283 0.7131206,-1.18854 0.237706,-0.41598 0.326847,-0.53484 c 0,-0.0297 0,-0.0297 0.02971,-0.0594 l 0.148567,-0.20799 0.08914,-0.208 c 0.17828,-0.32684 0.326847,-0.50512 0.475414,-0.74283 l 0.297133,-0.4457 c 0.237707,-0.38627 0.475413,-0.68341 0.683407,-0.95083 l 0.683407,-0.95082 0.772546,-1.21825 0.08914,-0.11885 0.207994,-0.35656 0.148567,-0.208 0.26742,-0.47541 0.148566,-0.20799 c 0,0 0,-0.0297 0.02971,-0.0594 l 0.08914,-0.17828 0.118853,0.14857 0.297133,0.32684 0.148567,0.26742 0.05943,0.0594 0.118853,0.17828 0.207994,0.53484 0.02971,0.11885 0.118853,0.32685 0.02971,0.32685 0.05943,0.29713 c 0,0.35656 0.02971,0.68341 0.02971,1.01025 0,0.29714 -0.02971,0.6537 -0.02971,0.98054 l -0.148566,0.53484 c 0,0.0594 -0.05943,0.208 -0.05943,0.26742 l -0.118853,0.38628 -0.02971,0.50512 c 0,0.0594 -0.05943,0.208 -0.05943,0.26742 l -0.118853,0.50513 -0.08914,0.35656 -0.237707,0.74283 -0.207993,0.59427 z m -0.297133,-11.5882 c -0.148567,-0.17828 -0.356561,-0.38628 -0.713121,-0.6537 l -0.02971,-0.0297 c -0.08914,-0.0297 -0.148567,-0.26742 -0.207993,-0.38627 l 0.237706,-0.0594 0.26742,-0.11885 0.386274,-0.0891 0.17828,-0.0891 0.297133,-0.0594 0.921114,-0.26742 0.594267,-0.14857 -0.71312,1.06968 -0.326847,0.4457 -0.148567,0.35656 -0.386273,0.56456 -0.326847,-0.4457 z" />
      <path
         id="path829"
         style="font-style:normal;font-variant:normal;font-weight:bold;font-stretch:normal;font-family:'Antro Vectra';-inkscape-font-specification:'Antro Vectra Bold';fill:url(#linearGradient844);fill-opacity:1;stroke-width:0.96568352"
         d="m 27.826254,111.83859 -0.53484,0.26742 -0.237707,0.0891 -0.53484,0.23771 -0.148567,0.0891 -0.297133,0.0891 -0.08914,0.0594 -0.564553,0.208 -0.326847,0.14856 -0.35656,0.11886 -0.118854,0.0891 -0.386273,0.11885 H 24.1418 l -0.26742,-0.14857 h -0.02971 l -0.118853,-0.11885 v -0.0297 l 0.08914,-0.32685 0.118853,-0.23771 0.08914,-0.38627 c 0,-0.0297 0.02971,-0.14857 0.05943,-0.17828 l 0.118854,-0.29713 0.742833,-1.39653 0.148567,-0.14857 0.26742,-0.50513 0.118853,-0.2377 c 0,-0.0297 0,-0.0297 0.02971,-0.0594 l 0.297133,-0.53484 0.4457,-0.62398 c 0.05943,-0.11885 0.148567,-0.17828 0.207993,-0.26742 l 0.26742,-0.4457 0.178281,-0.14857 0.237706,-0.41598 0.35656,-0.35656 0.237707,-0.41599 0.297133,-0.41599 0.237707,-0.4457 c 0,-0.0297 0.02971,-0.11885 0.05943,-0.17828 l 0.237707,-0.35656 0.53484,-0.74283 0.05943,-0.0891 0.08914,-0.14857 0.148567,-0.14856 0.297133,-0.41599 c 0,-0.0297 0.05943,-0.0594 0.08914,-0.0891 l 0.26742,-0.35656 c 0,-0.0594 0.02971,-0.11885 0.02971,-0.17828 l 0.80226,-1.01025 0.326847,-0.38628 0.326847,-0.32684 0.17828,-0.32685 0.207993,-0.29713 c 0.386273,-0.594271 0.861687,-1.188538 1.24796,-1.782805 l 0.207994,-0.207993 0.594266,-0.831973 0.475414,-0.653694 0.386273,-0.386273 0.62398,-0.891401 0.207994,-0.17828 0.386273,-0.53484 0.26742,-0.26742 0.297134,-0.4457 0.297133,-0.297133 0.683407,-0.980541 0.53484,-0.53484 0.386274,-0.35656 0.297133,-0.26742 0.26742,-0.17828 0.237707,-0.17828 0.62398,-0.4457 0.35656,-0.326847 c 0.17828,-0.148566 0.475413,-0.683407 0.05943,-1.188533 -0.207994,-0.237707 -0.415987,-0.297134 -0.594267,-0.297134 -0.26742,0 -0.386274,0.05943 -0.683407,0.237707 l -0.148567,0.08914 -0.207993,0.148567 -0.237707,0.237706 -0.17828,0.118854 -0.326847,0.35656 -0.326846,0.326847 -0.415987,0.386273 -0.237707,0.26742 -0.118853,0.17828 -0.148567,0.207994 -0.17828,0.17828 -0.26742,0.35656 -0.08914,0.17828 -0.17828,0.237706 -0.326847,0.534841 -0.148566,0.148566 c -0.05943,0.08914 -0.207994,0.26742 -0.267421,0.386274 l -0.207993,0.17828 c -0.118853,0.17828 -0.297133,0.415986 -0.415987,0.62398 l -0.118853,0.118853 -1.010254,1.455954 -0.118853,0.118853 -0.207993,0.26742 -0.386274,0.505127 c 0,0 -0.02971,0.05943 -0.02971,0.08914 l -0.05943,0.05943 -0.505127,0.683407 -0.118853,0.237706 v 0.08914 l -0.02971,0.02971 -0.207994,0.237706 c 0,0 -0.118853,0.148567 -0.207993,0.26742 l -0.17828,0.237707 -0.207993,0.237707 -0.207994,0.35656 c -0.148567,0.17828 -0.297133,0.35656 -0.35656,0.475413 l -0.207993,0.297138 -0.207994,0.2377 -0.386273,0.53484 -0.207994,0.32685 -0.17828,0.14857 -0.26742,0.32684 c 0,0.0297 -0.02971,0.11886 -0.02971,0.17828 l -0.17828,0.208 c 0,0.0297 0,0.0594 -0.02971,0.11885 l -0.05943,0.0594 -0.17828,0.2377 -0.118853,0.17828 c -0.02971,0.0594 -0.118854,0.0891 -0.148567,0.14857 l -0.118853,0.11885 -0.534841,0.74284 v 0.0594 l -0.118853,0.11886 -0.297133,0.41598 -0.26742,0.41599 c -0.02971,0.0891 -0.08914,0.11885 -0.118854,0.20799 l -1.188533,1.66395 -0.02971,0.0594 -0.53484,0.74283 -0.148567,0.32685 -0.17828,0.29713 -0.118853,0.17828 -0.386273,0.56455 h -0.118854 l -0.17828,0.38628 -0.08914,0.0891 -0.326847,0.4457 c -0.02971,0.0891 -0.118853,0.14856 -0.148566,0.2377 l -0.207994,0.29714 -0.207993,0.41598 c -0.02971,0.0891 -0.08914,0.0891 -0.118853,0.17828 l -0.148567,0.44571 -0.26742,0.53484 -0.118853,0.29713 -0.02971,0.17828 v 0.0594 c -0.148567,0.35656 -0.17828,0.71312 -0.148567,1.06968 0.02971,0.26742 0.207994,0.59426 0.297134,0.74283 l 0.207993,0.4457 c 0.02971,0 0.207994,0.0297 0.26742,0.0297 l 0.62398,0.208 0.08914,0.0594 0.178281,0.0297 0.35656,-0.0891 0.08914,-0.0891 h 0.05943 l 0.118854,-0.0594 0.80226,-0.35656 0.237707,-0.0297 0.4457,-0.23771 0.08914,-0.0297 0.415986,-0.14857 0.445701,-0.14857 0.237706,-0.11885 0.35656,-0.20799 0.683407,-0.38628 c 0.17828,-0.0891 0.35656,-0.2377 0.53484,-0.32684 l 0.02971,-0.0297 0.26742,-0.17828 0.415986,-0.2377 c 0,0 0.118854,-0.11886 0.178281,-0.14857 l 0.35656,-0.20799 c 0.08914,-0.0297 0.17828,-0.11886 0.26742,-0.14857 l 0.08914,-0.0594 0.505126,-0.32684 0.148567,-0.0891 0.207994,-0.14857 0.653693,-0.32685 0.386273,-0.29713 c 0.05943,-0.0594 0.118854,-0.14857 0.237707,-0.208 0.148567,-0.11885 0.326847,-0.2377 0.53484,-0.32684 l 0.02971,-0.0297 0.386273,-0.2377 0.207993,-0.208 0.564554,-0.32684 c 0.386273,-0.208 0.683407,-0.38628 1.218247,-0.74284 l 0.05943,-0.0594 0.207993,-0.0297 0.297133,-0.26742 0.02971,-0.29713 -0.05943,-0.17828 -0.207993,-0.11885 -0.237707,-0.0297 -0.17828,0.11886 c -0.05943,0 -0.118854,0.0297 -0.17828,0.0891 l -0.564554,0.35656 -0.26742,0.14856 -0.35656,0.14857 -0.207993,0.14857 -0.118854,0.11885 -0.415986,0.23771 -0.17828,0.11885 -0.118854,0.11885 h -0.05943 l -0.207994,0.0594 -0.71312,0.41599 -0.08914,0.0891 -0.118853,0.0297 -0.4457,0.29713 -0.267421,0.17828 -0.415986,0.23771 -1.277674,0.74284 -0.207993,0.14856 c -0.207994,0.0891 -0.386274,0.17828 -0.742834,0.32685 z" />
      <path
         id="path831"
         style="font-style:normal;font-variant:normal;font-weight:bold;font-stretch:normal;font-family:'Antro Vectra';-inkscape-font-specification:'Antro Vectra Bold';fill:url(#linearGradient844);fill-opacity:1;stroke-width:0.96568352"
         d="m 43.265815,109.6398 -0.237707,0.29713 -0.08914,0.14857 -0.26742,0.35656 v 0.0594 l -0.148567,0.32684 c -0.05943,0.11886 -0.02971,0.29714 0,0.44571 v 0.29713 l 0.267421,0.29713 0.207993,0.0594 0.148567,0.0594 0.26742,0.0297 h 0.386273 l 0.4457,-0.11885 c 0.02971,0 0.148567,-0.0891 0.207994,-0.11886 l 0.326846,-0.11885 0.802261,-0.29713 0.237706,-0.11886 0.742834,-0.29713 0.118853,-0.0594 0.237707,-0.14857 0.17828,-0.0594 0.26742,-0.0891 0.237707,-0.17828 0.118853,-0.0297 0.17828,-0.0594 0.653694,-0.23771 0.594266,-0.17828 0.505127,-0.23771 0.71312,-0.32684 0.17828,-0.0594 0.415987,-0.11885 h 0.17828 l 0.35656,-0.17828 0.4457,-0.11886 h 0.326847 l 0.297133,-0.26742 v -0.50512 c -0.02971,0 -0.207993,-0.0297 -0.297133,-0.0594 -0.02971,-0.0297 -0.207993,-0.0297 -0.237707,-0.0297 l -0.594266,0.17828 -0.267421,0.0594 -1.455953,0.41599 -0.08914,0.0891 -0.26742,0.0891 -1.039967,0.26742 -0.118854,0.0891 -0.118853,0.0297 -0.26742,0.11886 -0.35656,0.11885 -0.26742,0.0594 -0.148567,0.0594 -1.039967,0.29714 -0.386273,0.0891 -0.17828,0.0594 -0.326847,0.0594 -0.386273,0.0891 h -0.118854 l -0.297133,0.0297 c -0.118853,0 -0.17828,0.0297 -0.26742,0.0297 0,-0.0297 0.05943,-0.0297 0.08914,-0.11886 l 0.05943,-0.14856 0.08914,-0.17828 0.297133,-0.41599 0.05943,-0.0891 0.62398,-0.71312 0.237706,-0.20799 0.267421,-0.38628 0.118853,-0.11885 0.26742,-0.17828 0.05943,-0.29713 0.118853,-0.17828 0.02971,-0.0891 v -0.17828 c -0.17828,-0.29714 -0.35656,-0.41599 -0.505126,-0.47542 l -0.02971,-0.0297 -0.297133,-0.17828 -0.326847,-0.0594 h -0.415987 l -0.921113,0.208 -0.4457,0.26742 -0.35656,0.2377 -0.148567,0.11886 -0.237707,0.14856 -0.148567,0.11886 -0.475413,0.2377 -0.35656,0.26742 -0.505127,0.23771 -0.118853,0.0297 -0.8914,0.41599 -0.207994,0.14857 -0.80226,0.41598 -0.207993,0.11886 -0.237707,0.11885 -0.35656,0.17828 -0.17828,0.0297 -0.08914,0.0891 -0.26742,0.14857 -0.207994,0.14857 c -0.505126,0.29713 -0.505126,0.26742 -0.742833,0.35656 l -0.17828,0.0891 -0.386274,0.11885 -0.26742,0.14857 -0.148566,0.0891 -1.039967,0.47541 -0.207994,0.0297 -0.4457,0.14856 -0.26742,0.0594 c -0.207993,0.0594 -0.326847,0.17828 -0.53484,0.23771 v -0.208 l 0.02971,-0.0594 0.08914,-0.11886 0.148567,-0.17828 0.08914,-0.17828 0.17828,-0.38627 0.326847,-0.4457 0.118853,-0.14857 0.17828,-0.17828 c 0,0 0.02971,-0.0594 0.02971,-0.0891 l 0.05943,-0.0891 0.118854,-0.14857 0.17828,-0.20799 v -0.0297 l 0.35656,-0.32685 0.297133,-0.35656 v -0.0594 l 0.297134,-0.2377 0.05943,-0.0594 0.237707,-0.20799 0.207993,-0.11886 0.26742,-0.26742 0.267421,-0.29713 0.08914,-0.0891 1.3371,-0.98054 0.386273,-0.26742 0.148567,-0.0891 0.772547,-0.41599 0.653693,-0.26742 0.505127,-0.14856 0.386274,-0.11886 0.17828,-0.0594 0.207993,-0.0297 h 1.15882 c 0.05943,0 0.148567,-0.0297 0.207994,-0.0297 0.62398,0.0594 1.039966,-0.47541 1.129107,-0.71312 l 0.05943,-0.26742 -0.02971,-0.29713 -0.326847,-0.26742 c -0.02971,0 -0.118853,-0.0297 -0.148567,-0.0594 l -0.653693,-0.0891 h -0.4457 l -0.207994,0.0594 -0.17828,0.0594 -0.297133,0.0297 -0.118853,0.0891 c -0.17828,0.0297 -0.326847,0.11885 -0.505127,0.14856 l -0.17828,0.0594 -0.26742,0.11885 -1.06968,0.53484 c -0.297134,0.0891 -0.386274,0.17828 -0.475414,0.208 l -0.08914,0.0297 -0.26742,0.11885 -0.02971,0.0297 -0.4457,0.2377 -0.207994,0.17828 -0.505127,0.41599 -0.594266,0.53484 -0.237707,0.14857 -0.05943,0.0297 -0.35656,0.29713 -0.207993,0.208 -0.415987,0.32684 -1.366814,1.21825 -0.326846,0.29713 -0.267421,0.208 -0.118853,0.14856 -0.35656,0.35656 -0.297133,0.35656 -0.207994,0.29714 -0.237706,0.35656 c 0,0.0297 -0.02971,0.0594 -0.02971,0.0594 l -0.17828,0.208 -0.148567,0.41598 c -0.207993,0.50513 -0.35656,1.03997 -0.207993,1.45596 0.17828,0.47541 0.653694,0.59427 1.24796,0.53484 l 0.207994,0.0297 0.17828,-0.0297 0.505127,-0.20799 0.207993,-0.0297 0.594267,-0.20799 c 0,0 0.08914,-0.11885 0.148566,-0.14857 0.148567,-0.0594 0.207994,-0.0297 0.267421,-0.0891 l 0.207993,0.0297 0.35656,-0.14857 h 0.26742 l 0.564554,-0.29713 c 0.207993,-0.14857 0.415986,-0.26742 0.62398,-0.38628 0.02971,0 0.207993,-0.0594 0.237706,-0.0891 l 0.17828,-0.0594 0.297134,-0.208 0.17828,-0.11885 c 0.17828,-0.0891 0.35656,-0.23771 0.53484,-0.32685 l 0.118853,-0.0297 0.415987,-0.23771 0.02971,-0.0297 0.534841,-0.23771 0.207993,-0.0891 0.772547,-0.4457 0.683407,-0.32685 0.207993,-0.11885 0.207993,-0.0891 0.237707,-0.14857 0.921114,-0.53484 0.297133,-0.0594 0.831974,-0.32685 0.35656,-0.0891 h 0.02971 l -0.08914,0.11885 -0.297133,0.32685 h -0.02971 l -0.237706,0.26742 -0.237707,0.32685 z" />
      <path
         id="path833"
         style="font-style:normal;font-variant:normal;font-weight:bold;font-stretch:normal;font-family:'Antro Vectra';-inkscape-font-specification:'Antro Vectra Bold';fill:url(#linearGradient844);fill-opacity:1;stroke-width:0.96568352"
         d="m 61.177852,111.39289 c 0,0.0297 -0.02971,0.11885 -0.02971,0.14857 -0.05943,0.17828 -0.02971,0.38627 0.05943,0.56455 l 0.02971,0.11885 0.35656,0.38628 c 0.05943,0 0.17828,0.0297 0.207993,0.0297 h 0.05943 c 0.148567,0.0297 0.415987,0 0.62398,-0.0297 0.08914,0 0.17828,-0.0297 0.297133,-0.0297 h 0.297134 l 0.386273,-0.0891 0.35656,-0.0594 c 0.05943,0 0.148567,0 0.207994,-0.0297 l 0.207993,-0.0297 0.326847,-0.0297 0.386273,-0.11886 0.118854,-0.0297 0.326846,-0.0297 1.010254,-0.32685 0.386273,-0.0891 0.297134,-0.0891 0.4457,-0.0297 0.08914,-0.0297 0.207993,-0.0297 0.297134,-0.26742 0.02971,-0.23771 -0.08914,-0.20799 -0.415987,-0.0594 -0.207993,0.0297 c -0.05943,0 -0.08914,0 -0.148567,0.0297 l -0.26742,0.0297 -0.386273,0.0297 -0.207994,0.0594 -0.71312,0.11886 -0.17828,-0.0297 -0.415987,0.11886 -0.148566,0.0297 c -0.05943,0 -0.148567,0.0297 -0.207994,0.0297 -0.326847,0.0594 -0.594267,0.0891 -0.831973,0.0891 h -0.207994 l -0.17828,-0.0297 h -0.237706 c -0.08914,0 -0.178281,-0.0297 -0.267421,-0.0297 -0.237706,-0.0297 -0.35656,-0.0891 -0.4457,-0.17828 v -0.0594 c 0,-0.0891 0.02971,-0.23771 0.08914,-0.41599 l 0.148567,-0.14857 0.148567,-0.26742 c 0,-0.0297 0.02971,-0.11885 0.02971,-0.17828 l 0.118853,-0.26742 c 0,-0.0297 0.02971,-0.0891 0.02971,-0.14856 l 0.237707,-0.35656 v -0.0594 l 0.207993,-0.23771 0.118853,-0.26742 0.118854,-0.29713 0.297133,-0.4457 c 0,0 0.02971,-0.14857 0.05943,-0.20799 l 0.207993,-0.38628 0.4457,-0.59426 0.08914,-0.208 0.05943,-0.20799 v -0.17828 l -0.118853,-0.23771 -0.207994,-0.20799 c -0.17828,-0.0891 -0.386273,-0.11885 -0.505127,-0.11885 l -0.148566,0.0297 -0.26742,0.0594 -0.237707,0.11885 -0.683407,0.35656 -0.148567,0.11885 -0.118853,0.0594 -0.921114,0.35656 -0.148566,0.0891 -0.08914,0.0594 -0.386274,0.14856 -0.17828,0.11886 -0.326846,0.17828 -0.356561,0.35656 -0.35656,0.20799 -0.326846,0.23771 -0.891401,0.50512 -0.505126,0.23771 -0.237707,0.20799 c -0.05943,0.0594 -0.118853,0.0594 -0.17828,0.11886 l -0.653694,0.41598 h -0.02971 l -0.148567,0.0297 -0.742833,0.35656 -0.4457,0.35656 -0.17828,0.0891 -0.148567,0.0594 -0.326847,0.14857 c -0.05943,0.0297 -0.118853,0.11885 -0.17828,0.14857 l -1.218247,0.56455 -0.17828,0.0891 -0.207993,0.0594 -0.505127,0.20799 -0.505127,0.17828 c -0.05943,0.0297 -0.326846,0.11886 -0.594266,0.17828 -0.267421,0.0891 -0.475414,0.11886 -0.594267,0.11886 h -0.118854 c -0.02971,-0.0594 0,0 0,-0.0891 0,-0.0594 0,-0.0594 0.02971,-0.0891 l 0.148566,-0.35656 0.08914,-0.208 0.148567,-0.4457 0.118853,-0.20799 0.297134,-0.41599 c 0.118853,-0.20799 0.26742,-0.41599 0.415987,-0.62398 l 0.26742,-0.35656 0.594266,-0.80226 0.05943,-0.0594 0.17828,-0.14856 0.17828,-0.208 0.148567,-0.14856 0.17828,-0.208 0.297133,-0.29713 0.207994,-0.26742 0.26742,-0.35656 0.237707,-0.4457 0.17828,-0.29713 0.08914,-0.35656 v -0.59427 c -0.02971,-0.26742 -0.118854,-0.47541 -0.207994,-0.62398 l -0.26742,-0.23771 -0.17828,-0.0297 -0.237707,0.0297 -0.35656,0.14857 -0.35656,0.50513 -0.148566,0.38627 -0.08914,0.38627 -0.02971,0.26742 c 0,0.0891 -0.05943,0.17828 -0.05943,0.208 l -0.118854,0.32684 -0.05943,0.11886 -0.118853,0.17828 -0.326847,0.47541 -0.148566,0.23771 -0.148567,0.2377 -0.237707,0.32685 -0.207993,0.23771 -0.26742,0.4457 -0.148567,0.20799 -0.17828,0.23771 -0.08914,0.2377 -0.35656,0.62398 -0.237707,0.26742 -0.207993,0.32685 v 0.0297 l -0.08914,0.23771 -0.148567,0.17828 -0.118853,0.41599 -0.118854,0.38627 v 0.23771 c 0,0.20799 0,0.38627 0.207994,0.68341 0.118853,0.11885 0.148566,0.17828 0.594267,0.32684 l 0.35656,0.11886 0.8914,0.0891 0.207993,-0.0297 0.26742,-0.0594 0.17828,-0.0594 0.683407,-0.14857 0.297134,-0.14856 0.08914,-0.0891 0.17828,-0.11886 0.08914,-0.0297 0.207993,-0.0297 0.237707,-0.26742 h 0.05943 l 0.148567,-0.0594 0.415987,-0.23771 0.26742,-0.11885 0.08914,-0.0594 0.207993,-0.2377 0.05943,-0.0297 1.15882,-0.65369 0.386274,-0.17828 0.861687,-0.47542 0.207993,-0.17828 0.118853,-0.0891 1.723374,-1.01025 0.17828,-0.0891 0.53484,-0.32685 0.71312,-0.35656 0.207994,-0.14856 0.207993,-0.0594 0.148567,-0.0594 0.98054,-0.32684 -0.118853,0.20799 c 0,0.0594 -0.02971,0.11885 -0.02971,0.14857 l -0.148566,0.26742 c -0.05943,0.17828 -0.148567,0.26742 -0.17828,0.35656 l -0.08914,0.11885 c 0,0.0297 0,0.0594 -0.02971,0.11885 -0.08914,0.14857 -0.237706,0.38628 -0.297133,0.50513 l -0.297133,0.53484 c -0.02971,0.0594 -0.05943,0.0891 -0.05943,0.14857 l -0.118854,0.20799 v 0.0594 c -0.148566,0.32684 -0.207993,0.53484 -0.26742,0.62398 z" />
    </g>
  </g>
</svg>
